<svg xmlns="http://www.w3.org/2000/svg" viewBox="0 0 81.63 81.63"><defs><style>.cls-1{fill:#1c1c1c;}.cls-2,.cls-4{fill:#fff;}.cls-3{fill:#1de9b6;}.cls-4{isolation:isolate;font-size:9.99px;font-family:AvenirLTStd-Medium, Avenir LT Std;}</style></defs><title>Fichier 4</title><g id="Calque_2" data-name="Calque 2"><g id="Layer_1" data-name="Layer 1"><circle class="cls-1" cx="40.81" cy="40.81" r="40.81"/><path class="cls-2" d="M50,39.08H43V25.27a7.53,7.53,0,0,0-7.53-7.51V39.08H27.92V16.48A7.51,7.51,0,0,0,20.41,9h0V39.06h-5c0,3.73,2.19,6.83,5,7.39v7.71a7.51,7.51,0,0,0,7.51,7.51h0v-15h7.52V62.85A7.53,7.53,0,0,0,43,70.38h0V46.57H50A3.48,3.48,0,0,0,53,42.81,3.46,3.46,0,0,0,50,39.08Z"/><path class="cls-3" d="M58,46.58c0-4.15-2.88-7.52-6.44-7.52H27.92v7.52h7.52V72.19c0,2.78,3.37,5,7.53,5V47.07a2,2,0,0,0,0-.49Z"/><path class="cls-3" d="M51,66.12v-.78h0a1.48,1.48,0,0,1-.6.64,2,2,0,0,1-1.74.12,1.43,1.43,0,0,1-.56-.41,1.76,1.76,0,0,1-.31-.61,2.87,2.87,0,0,1-.11-.77V61.38h.94v3.18a1.43,1.43,0,0,0,.18.47,1.09,1.09,0,0,0,.33.31,1,1,0,0,0,.54.12,1.15,1.15,0,0,0,.92-.42A1.67,1.67,0,0,0,51,63.9V61.38h.94v4.74Z"/><path class="cls-3" d="M53.64,65.37v.75h-1V58.56h.95V62h0a1.93,1.93,0,0,1,.68-.59,2.1,2.1,0,0,1,1-.25,2.65,2.65,0,0,1,1,.19,2.32,2.32,0,0,1,.76.53,2.27,2.27,0,0,1,.47.79,2.53,2.53,0,0,1,.17,1,2.48,2.48,0,0,1-.17,1,2.23,2.23,0,0,1-.47.8,2.12,2.12,0,0,1-.75.54,2.24,2.24,0,0,1-1,.19,2.32,2.32,0,0,1-1-.21,2,2,0,0,1-.73-.66Zm3.15-1.63a2,2,0,0,0-.11-.63,1.61,1.61,0,0,0-.29-.55,1.48,1.48,0,0,0-.51-.38,1.42,1.42,0,0,0-.67-.14,1.63,1.63,0,0,0-.66.14,1.7,1.7,0,0,0-.51.38,1.5,1.5,0,0,0-.31.55,1.47,1.47,0,0,0-.12.65,1.41,1.41,0,0,0,.12.64,1.39,1.39,0,0,0,.31.54,1.48,1.48,0,0,0,.51.38,1.63,1.63,0,0,0,.66.14,1.55,1.55,0,0,0,.67-.14,1.48,1.48,0,0,0,.51-.38,1.66,1.66,0,0,0,.29-.56A2,2,0,0,0,56.79,63.74Z"/><path class="cls-3" d="M63.58,63.71v.17a.43.43,0,0,1,0,.16H59.79a1.71,1.71,0,0,0,.14.55,1.5,1.5,0,0,0,.33.45,2,2,0,0,0,.49.32,1.7,1.7,0,0,0,.59.1,1.77,1.77,0,0,0,.84-.21,1.69,1.69,0,0,0,.53-.5l.67.52a2.39,2.39,0,0,1-.89.75,2.81,2.81,0,0,1-1.13.31,2.55,2.55,0,0,1-1-.17,2.48,2.48,0,0,1-.8-.51,2,2,0,0,1-.52-.78,2.58,2.58,0,0,1-.19-1,2.65,2.65,0,0,1,.19-1,2.13,2.13,0,0,1,.52-.8,2.54,2.54,0,0,1,2.69-.52A1.86,1.86,0,0,1,63,62a2.23,2.23,0,0,1,.46.77A3,3,0,0,1,63.58,63.71Zm-.95-.37a2.59,2.59,0,0,0-.11-.54,1.27,1.27,0,0,0-.24-.42,1.17,1.17,0,0,0-.42-.27,1.22,1.22,0,0,0-.57-.13,1.24,1.24,0,0,0-.56.13,1.47,1.47,0,0,0-.47.27,2.53,2.53,0,0,0-.31.42,1.47,1.47,0,0,0-.16.54Z"/><text class="cls-4" transform="translate(46.9 55.9)">yper</text></g></g></svg>