<?xml version="1.0" encoding="utf-8"?>
<!-- Generator: Adobe Illustrator 22.1.0, SVG Export Plug-In . SVG Version: 6.00 Build 0)  -->
<svg version="1.1" id="Calque_1" xmlns="http://www.w3.org/2000/svg" xmlns:xlink="http://www.w3.org/1999/xlink" x="0px" y="0px"
	 viewBox="0 0 133.7 36.8" style="enable-background:new 0 0 133.7 36.8;" xml:space="preserve">
<style type="text/css">
	.st0{fill:#FFFFFF;}
	.st1{fill:#1DE9B6;}
</style>
<g id="Groupe_3" transform="translate(-376.393 209.431)">
	<path id="Tracé_1" class="st0" d="M396.6-191.5h-4.1v-8.2c0-2.5-1.9-4.5-4.4-4.5l0,0v12.7h-4.4V-205c0-2.5-1.9-4.5-4.4-4.5l0,0
		v17.9h-2.9c0,2.2,1.3,4.1,2.9,4.4v4.5c0,2.5,1.9,4.5,4.4,4.5v-9h4.4v9.7c0,2.5,1.9,4.5,4.4,4.5v-14h4.1c1.1-0.2,1.9-1.2,1.7-2.2
		C398.5-190.3,397.7-191.3,396.6-191.5z"/>
	<g>
		<path id="Tracé_2" class="st1" d="M472.4-196.8c0-2.5-1.7-4.6-3.8-4.6h-13.3c-0.3,0-0.5,0.2-0.5,0.5v3.6c0,0.3,0.2,0.5,0.5,0.5
			h3.9v15.5c0,1.7,2,3,4.4,3v-18.6L472.4-196.8z"/>
		<g id="Groupe_1">
			<path id="Tracé_3" class="st1" d="M478.8-178.8h-2.9v-2h-0.1c-0.7,1.5-2.2,2.4-3.8,2.3c-3.3,0-4.5-2.3-4.5-4.8v-7.7h3.1v6.2
				c0,1.4,0.1,3.6,2.3,3.6c2,0,2.8-1.5,2.8-3.1v-6.7h3.1V-178.8z"/>
			<path id="Tracé_4" class="st1" d="M482.2-198.1h3.1v8.6h0.1c1-1.3,2.6-1.9,4.2-1.9c3.5,0,5.9,2.8,5.9,6.4s-2.3,6.4-6.1,6.4
				c-1.7,0.1-3.3-0.7-4.2-2.1h-0.1v1.8h-2.9V-198.1z M488.8-188.6c-2,0-3.6,1.5-3.6,3.5c0,0.1,0,0.1,0,0.2c-0.1,2,1.5,3.6,3.4,3.7
				c0.1,0,0.1,0,0.2,0c2,0,3.6-1.5,3.6-3.5c0-0.1,0-0.1,0-0.2c0.1-2-1.5-3.6-3.4-3.7C488.9-188.6,488.9-188.6,488.8-188.6
				L488.8-188.6z"/>
			<path id="Tracé_5" class="st1" d="M500.8-183.8c0.1,1.7,1.6,3,3.3,2.9c1.3,0,2.5-0.6,3.3-1.7l2.2,1.7c-1.2,1.6-3.2,2.5-5.2,2.5
				c-3.5,0.2-6.5-2.5-6.7-6c0-0.1,0-0.3,0-0.4c0-3.5,2.8-6.4,6.3-6.4c0.1,0,0.3,0,0.4,0c3.4,0,5.8,2.4,5.8,6.7v0.8L500.8-183.8z
				 M507.1-186.1c0.1-1.6-1.2-2.9-2.7-2.9c-0.1,0-0.3,0-0.4,0c-1.7-0.1-3.1,1.2-3.2,2.9H507.1z"/>
		</g>
	</g>
	<g id="Groupe_2">
		<path id="Tracé_6" class="st0" d="M400.3-191h3.4l3.4,8.5h0.1l3.1-8.5h3.2l-5.8,14.9c-0.9,2.3-2,3.5-4.7,3.5
			c-0.8,0-1.6-0.1-2.4-0.3l0.4-2.8c0.5,0.2,1,0.3,1.6,0.3c1.5,0,1.9-0.5,2.4-1.8l0.6-1.5L400.3-191z"/>
		<path id="Tracé_7" class="st0" d="M415.2-191h2.9v1.8l0,0c0.9-1.4,2.5-2.2,4.2-2.1c3.8,0,6.1,2.8,6.1,6.4s-2.4,6.4-5.9,6.4
			c-1.6,0.1-3.2-0.6-4.2-1.9h-0.1v7.4h-3.1v-18H415.2z M421.8-188.5c-2,0-3.6,1.5-3.6,3.5c0,0.1,0,0.1,0,0.2c-0.1,2,1.5,3.6,3.4,3.7
			c0.1,0,0.1,0,0.2,0c2,0,3.6-1.5,3.6-3.5c0-0.1,0-0.1,0-0.2c0.1-2-1.5-3.6-3.4-3.7C421.9-188.5,421.8-188.5,421.8-188.5
			L421.8-188.5z"/>
		<path id="Tracé_8" class="st0" d="M433.8-183.8c0.1,1.7,1.6,3,3.3,2.9c1.3,0,2.5-0.6,3.3-1.7l2.2,1.7c-1.2,1.6-3.2,2.5-5.2,2.5
			c-3.5,0.2-6.5-2.5-6.7-6c0-0.1,0-0.3,0-0.4c0-3.5,2.8-6.4,6.3-6.4c0.1,0,0.3,0,0.4,0c3.4,0,5.8,2.4,5.8,6.7v0.8L433.8-183.8z
			 M440-186.1c0.1-1.6-1.2-2.9-2.7-2.9c-0.1,0-0.3,0-0.4,0c-1.7-0.1-3.1,1.2-3.2,2.9H440z"/>
		<path id="Tracé_9" class="st0" d="M446-191h3.1v1.9h0.1c0.7-1.4,2.1-2.3,3.6-2.2c0.4,0,0.7,0.1,1.1,0.2v3c-0.5-0.1-1-0.2-1.5-0.2
			c-1.7-0.1-3.2,1.2-3.3,2.9c0,0.1,0,0.2,0,0.2v6.6H446V-191z"/>
	</g>
</g>
</svg>
