<?xml version="1.0" encoding="utf-8"?>
<!-- Generator: Adobe Illustrator 22.1.0, SVG Export Plug-In . SVG Version: 6.00 Build 0)  -->
<svg version="1.1" id="Calque_1" xmlns="http://www.w3.org/2000/svg" xmlns:xlink="http://www.w3.org/1999/xlink" x="0px" y="0px"
	 viewBox="0 0 595.3 841.9" style="enable-background:new 0 0 595.3 841.9;" xml:space="preserve">
<style type="text/css">
	.st0{opacity:0.79;}
	.st1{opacity:0.4;fill:#616160;}
	.st2{fill:none;stroke:#FFFFFF;stroke-width:23.0468;stroke-linecap:round;stroke-linejoin:round;stroke-miterlimit:10;}
	.st3{fill:#FFFFFF;}
</style>
<image style="overflow:visible;" width="190" height="290" xlink:href="7CBA7F47.jpg"  transform="matrix(3.1439 0 0 3.1177 -2.8542 -26.1917)">
</image>
<rect x="-35.7" y="-45.1" class="st0" width="663" height="942"/>
<g>
	<circle class="st1" cx="295.8" cy="370" r="167"/>
	<polyline class="st2" points="239.3,279.9 352.3,368.8 239.9,460 	"/>
</g>
<g>
	<path class="st3" d="M94,675.3l3.6-8c4.4,3.6,11.5,6.1,18.3,6.1c8.6,0,12.3-3.1,12.3-7.2c0-11.9-32.9-4.1-32.9-24.7
		c0-8.9,7.1-16.5,22.3-16.5c6.6,0,13.6,1.7,18.4,4.9l-3.2,8c-5-2.9-10.4-4.4-15.3-4.4c-8.5,0-12,3.3-12,7.5
		c0,11.8,32.8,4.1,32.8,24.4c0,8.9-7.2,16.5-22.4,16.5C107.2,681.9,98.5,679.3,94,675.3z"/>
	<path class="st3" d="M189.9,672.5v8.6h-41.5v-55.4h40.4v8.6h-30.1v14.4h26.7v8.5h-26.7v15.3H189.9z"/>
	<path class="st3" d="M242.9,672.5v8.6h-41.5v-55.4h40.4v8.6h-30.1v14.4h26.7v8.5h-26.7v15.3H242.9z"/>
	<path class="st3" d="M327,681.1l-0.1-36.7l-18.2,30.4h-4.6L286,644.9v36.2h-9.8v-55.4h8.5l22,36.7l21.6-36.7h8.5l0.1,55.4H327z"/>
	<path class="st3" d="M347.8,653.5c0-16.4,12.7-28.5,29.8-28.5c17.2,0,29.8,12,29.8,28.5s-12.7,28.5-29.8,28.5
		C360.4,681.9,347.8,669.8,347.8,653.5z M397,653.5c0-11.3-8.3-19.5-19.5-19.5c-11.2,0-19.5,8.1-19.5,19.5s8.3,19.5,19.5,19.5
		C388.7,672.9,397,664.8,397,653.5z"/>
	<path class="st3" d="M454.6,681.1l-11.3-16.2c-0.7,0.1-1.4,0.1-2.1,0.1h-12.5v16.1h-10.3v-55.4h22.8c14.6,0,23.6,7.4,23.6,19.7
		c0,8.4-4.3,14.6-11.8,17.5l12.7,18.2H454.6z M440.6,634.5h-12v22.1h12c9,0,13.7-4.1,13.7-11.1C454.3,638.5,449.6,634.5,440.6,634.5
		z"/>
	<path class="st3" d="M517.7,672.5v8.6h-41.5v-55.4h40.4v8.6h-30.1v14.4h26.7v8.5h-26.7v15.3H517.7z"/>
</g>
</svg>
