<svg xmlns="http://www.w3.org/2000/svg" viewBox="0 0 29.41 29.41"><defs><style>.cls-1{fill:#fff;}</style></defs><title>Fichier 6</title><g id="Calque_2" data-name="Calque 2"><g id="ELEMENTS"><path d="M14.7,0A14.71,14.71,0,1,0,29.41,14.7,14.72,14.72,0,0,0,14.7,0Z"/><polygon id="polygon5" class="cls-1" points="2.65 18.4 10.91 18.4 10.91 22.54 15.04 22.54 15.04 15.06 6.79 15.06 15.04 6.79 10.91 6.79 2.65 15.06 2.65 18.4"/><polygon id="polygon7" class="cls-1" points="16.82 10.93 20.94 6.79 16.82 6.79 16.82 10.93"/><polygon id="polygon9" class="cls-1" points="20.94 10.93 16.82 15.06 16.82 19.19 20.94 19.19 20.94 15.06 25.08 10.93 25.08 6.79 20.94 6.79 20.94 10.93"/><polygon id="polygon11" class="cls-1" points="25.08 15.06 20.94 19.19 25.08 19.19 25.08 15.06"/></g></g></svg>