<svg xmlns="http://www.w3.org/2000/svg" viewBox="0 0 29.41 29.41"><defs><style>.cls-1{fill:#1041dd;}.cls-2{fill:#fff;}</style></defs><title>Fichier 1</title><g id="Calque_2" data-name="Calque 2"><g id="ELEMENTS"><path class="cls-1" d="M14.7,0A14.71,14.71,0,1,0,29.41,14.7,14.72,14.72,0,0,0,14.7,0Z"/><path class="cls-2" d="M10.31,10.83h1.91v-1a6.35,6.35,0,0,1,.35-2.45,2.76,2.76,0,0,1,1.28-1.32,5,5,0,0,1,2.37-.51A9.72,9.72,0,0,1,19.1,6l-.46,2.4a6.87,6.87,0,0,0-1.58-.19A1.4,1.4,0,0,0,16,8.57a2.06,2.06,0,0,0-.32,1.34v.92h2.57v2.7H15.66V23.84H12.22V13.53H10.31Z"/></g></g></svg>