<svg xmlns="http://www.w3.org/2000/svg" viewBox="0 0 29.41 29.41"><defs><style>.cls-1{fill:#dd4f40;}.cls-2{fill:#fff;}</style></defs><title>Fichier 3</title><g id="Calque_2" data-name="Calque 2"><g id="ELEMENTS"><path class="cls-1" d="M14.7,0A14.71,14.71,0,1,0,29.41,14.7,14.72,14.72,0,0,0,14.7,0Z"/><path class="cls-2" d="M15.12,5.85A8.33,8.33,0,0,1,19.31,7a10.06,10.06,0,0,1,1.57,1.15l-2.6,2.57a5,5,0,0,0-3.34-1.31,5.3,5.3,0,0,0-5.1,4.14,4.79,4.79,0,0,0-.12,1.6,5.26,5.26,0,0,0,3.61,4.6,5.17,5.17,0,0,0,1.55.24h.37a5.15,5.15,0,0,0,2.58-.83,4.07,4.07,0,0,0,1.76-2.67H14.85c0-.11,0-2.33,0-3.41v-.14h8.33a9.57,9.57,0,0,1-1.57,7.46,7.77,7.77,0,0,1-4.38,2.86,9.28,9.28,0,0,1-2.39.31l-.52,0a8.59,8.59,0,0,1-4.71-1.67,8.69,8.69,0,0,1-3.42-5.29,8.36,8.36,0,0,1-.17-2.39,9,9,0,0,1,6.77-8.08,6.63,6.63,0,0,1,1.46-.23Z"/></g></g></svg>